<svg width="1290" height="2796" viewBox="0 0 1290 2796" fill="none" xmlns="http://www.w3.org/2000/svg">
<g clip-path="url(#clip0_10441_174)">
<path d="M1290 0H0V2796H1290V0Z" fill="#FAFAFA"/>
<path d="M223.272 1443.23C171.981 1443.23 140.175 1415.43 138.456 1371.88H171.122C173.127 1400.53 194.905 1416.58 224.132 1416.58C251.926 1416.58 269.692 1405.12 269.692 1384.48C269.692 1367.29 256.224 1358.98 233.301 1354.11L201.495 1347.23C170.262 1340.64 145.333 1322.59 145.333 1291.36C145.333 1257.26 177.426 1233.19 221.266 1233.19C267.973 1233.19 296.34 1258.41 298.633 1296.52H265.967C264.534 1275.31 248.774 1259.84 220.12 1259.84C195.764 1259.84 177.999 1271.01 177.999 1288.49C177.999 1304.83 190.32 1312.85 212.384 1317.43L247.055 1324.88C278.288 1331.47 302.358 1348.95 302.358 1381.05C302.358 1416.29 273.704 1443.23 223.272 1443.23ZM324.58 1497.67V1299.67H354.381V1307.69C354.381 1311.42 354.094 1314.85 353.808 1319.15C362.117 1305.4 378.164 1295.08 399.368 1295.08C437.764 1295.08 461.834 1326.03 461.834 1369.3C461.834 1414 435.185 1443.23 398.508 1443.23C376.731 1443.23 362.69 1433.48 353.808 1419.44L354.381 1431.76V1497.67H324.58ZM392.204 1420.02C415.701 1420.02 431.174 1399.1 431.174 1369.01C431.174 1339.5 416.274 1318.58 392.204 1318.58C369.281 1318.58 352.948 1338.06 352.948 1369.01C352.948 1399.38 368.994 1420.02 392.204 1420.02ZM544.906 1443.23C503.358 1443.23 475.563 1416.86 475.563 1371.3C475.563 1325.46 504.217 1295.08 543.474 1295.08C585.595 1295.08 609.092 1324.31 609.092 1369.3V1375.6H505.937C506.223 1402.54 522.556 1420.02 544.906 1420.02C560.953 1420.02 575.28 1412.28 578.145 1394.51H607.945C605.08 1420.88 583.303 1443.23 544.906 1443.23ZM578.145 1354.4C577.859 1332.62 564.964 1317.72 543.474 1317.72C522.269 1317.72 507.942 1333.77 506.223 1354.4H578.145ZM692.739 1443.23C651.764 1443.23 623.11 1416.58 623.11 1369.01C623.11 1323.74 654.056 1295.08 694.172 1295.08C730.849 1295.08 754.059 1317.15 757.211 1349.24H726.838C725.119 1332.33 713.943 1318.58 693.885 1318.58C670.389 1318.58 653.483 1338.64 653.483 1369.01C653.483 1399.38 669.529 1420.02 693.599 1420.02C714.516 1420.02 726.265 1407.12 728.557 1388.78H758.357C754.632 1421.45 732.282 1443.23 692.739 1443.23ZM778.693 1438.64V1299.67H808.493V1438.64H778.693ZM777.26 1275.88V1242.93H809.926V1275.88H777.26ZM879.043 1443.23C853.827 1443.23 831.19 1427.18 831.19 1400.53C831.19 1371.3 854.114 1359.56 881.335 1355.83L906.264 1352.11C917.153 1350.67 920.878 1346.66 920.878 1338.92C920.878 1326.6 911.136 1317.72 895.662 1317.72C876.751 1317.72 866.148 1328.04 865.289 1343.8H834.915C836.348 1316.86 858.125 1295.08 893.656 1295.08C932.053 1295.08 950.392 1316.57 950.392 1352.11V1438.64H922.597V1432.34C922.597 1428.04 922.597 1424.31 923.17 1419.73C916.007 1433.77 901.393 1443.23 879.043 1443.23ZM885.633 1420.88C905.978 1420.88 921.451 1406.55 921.451 1385.34V1367.58C919.159 1370.16 914.001 1372.16 905.691 1373.6L889.931 1376.75C873.599 1379.9 861.85 1386.2 861.85 1399.67C861.85 1413.14 872.452 1420.88 885.633 1420.88ZM979.205 1438.64V1238.06H1009.01V1438.64H979.205ZM1091.59 1443.23C1053.19 1443.23 1030.27 1422.88 1028.84 1391.65H1058.64C1059.5 1409.41 1070.96 1420.59 1091.3 1420.59C1108.78 1420.59 1120.24 1412.57 1120.24 1400.24C1120.24 1390.22 1112.51 1384.48 1096.75 1381.33L1077.84 1377.61C1050.33 1372.45 1033.71 1358.98 1033.71 1336.63C1033.71 1312.85 1056.34 1295.08 1089.3 1295.08C1124.54 1295.08 1146.32 1312.85 1147.75 1341.5H1117.95C1116.52 1326.6 1105.63 1317.72 1088.44 1317.72C1073.54 1317.72 1063.22 1324.31 1063.22 1335.2C1063.22 1344.94 1070.1 1349.81 1086.72 1352.96L1105.92 1356.69C1131.99 1361.85 1149.47 1374.17 1149.47 1397.95C1149.47 1423.74 1127.41 1443.23 1091.59 1443.23Z" fill="black"/>
</g>
<defs>
<clipPath id="clip0_10441_174">
<rect width="1290" height="2796" fill="white"/>
</clipPath>
</defs>
</svg>
